# xmcd
#
# Track frame offsets: 
#        150
#        18552
#        36244
#        58281
#        77001
#        87048
#        105965
#        120020
#        139021
#        156961
#        170048
#        191458
#        204642
#        223708
#        237855
#        250702
#        268846
#        287507
#        311860
#        325360
#        340807
#
# Disc length: 4806 seconds
#
# Revision: 0
# Processed by: cddbd v1.5.2PL0 Copyright (c) Steve Scherf et al.
# Submitted via: ExactAudioCopy v0.95a5
#
DISCID=2b12c415
DTITLE=Various Artist - Akella Presents - Country Blues - vol.9  CD1
DYEAR=2010
DGENRE=Blues
TTITLE0=Devil Baby - MARK KNOPFLER
TTITLE1=Apache - JIMMY THACKERY
TTITLE2=Tender Dreams - BIG HOUSE
TTITLE3=Ain't Slept In Our Bed - BIG HOUSE
TTITLE4=Cajun Moon - J.J.CALE
TTITLE5=Can't Take That Away - LYNYRD SKYNYRD
TTITLE6=You're Too Much For Me - SHAVER
TTITLE7=Higher Ground - DELTA MOON
TTITLE8=Easy Does It - RICK VITO
TTITLE9='Neath a Cold Gray Tomb of Stone - THREE HANKS
TTITLE10=End Of The Trail - HANK SHIZZOE
TTITLE11=Louisiana Women - J.J.CALE
TTITLE12=Beachcombing - MARK KNOPFLER and EMMYLOU HARRIS
TTITLE13=Iron Hand - DIRE STRAITS
TTITLE14=One Kiss - The UNDERDOGS
TTITLE15=Burn Me Up Slowly - ROGER GLOVER
TTITLE16=The King Of San Antone - NEAL BLACK
TTITLE17=I'm Not Awake Yet - RORY GALLAGHER
TTITLE18=Small Time - HANK SHIZZOE
TTITLE19=Endless Commercial  - JOHN KAY
TTITLE20=Don't Wanna Go Home - JIMMY NAIL
EXTD=
EXTT0=
EXTT1=
EXTT2=
EXTT3=
EXTT4=
EXTT5=
EXTT6=
EXTT7=
EXTT8=
EXTT9=
EXTT10=
EXTT11=
EXTT12=
EXTT13=
EXTT14=
EXTT15=
EXTT16=
EXTT17=
EXTT18=
EXTT19=
EXTT20=
PLAYORDER=
